<svg width="158" height="158" viewBox="0 0 158 158" fill="none" xmlns="http://www.w3.org/2000/svg">
<circle cx="78.8605" cy="79.1395" r="71.409" fill="#FFA800"/>
<circle cx="78.9999" cy="79" r="59.275" fill="#FFC700"/>
<circle cx="78.9999" cy="79" r="60.775" stroke="#FFB628" stroke-width="3" stroke-linecap="round" stroke-linejoin="round" stroke-dasharray="12 12"/>
<circle cx="79" cy="79" r="62.1697" transform="rotate(-15.9417 79 79)" stroke="#FFB628" stroke-width="3" stroke-linecap="round" stroke-linejoin="round" stroke-dasharray="12 12"/>
<circle cx="78.9999" cy="79" r="63.5644" transform="rotate(-5.24828 78.9999 79)" stroke="#FFB628" stroke-width="3" stroke-linecap="round" stroke-linejoin="round" stroke-dasharray="12 12"/>
<circle cx="78.9999" cy="79" r="64.9591" transform="rotate(-2.44748 78.9999 79)" stroke="#FFB628" stroke-width="3" stroke-linecap="round" stroke-linejoin="round" stroke-dasharray="12 12"/>
<circle cx="78.9999" cy="79" r="66.3539" transform="rotate(0.747454 78.9999 79)" stroke="#FFB628" stroke-width="3" stroke-linecap="round" stroke-linejoin="round" stroke-dasharray="12 12"/>
<circle cx="78.9999" cy="79" r="67.7486" transform="rotate(-1.59134 78.9999 79)" stroke="#FFB628" stroke-width="3" stroke-linecap="round" stroke-linejoin="round" stroke-dasharray="12 12"/>
<circle cx="79" cy="79" r="69.1433" transform="rotate(1.48945 79 79)" stroke="#FFB628" stroke-width="3" stroke-linecap="round" stroke-linejoin="round" stroke-dasharray="12 12"/>
<path d="M54.836 71.6793C57.4496 71.6793 59.5684 69.5605 59.5684 66.9468C59.5684 64.3332 57.4496 62.2144 54.836 62.2144C52.2223 62.2144 50.1035 64.3332 50.1035 66.9468C50.1035 69.5605 52.2223 71.6793 54.836 71.6793Z" fill="white"/>
<path d="M107.839 66.5682C107.839 69.1819 105.721 71.3007 103.107 71.3007C100.493 71.3007 98.3745 69.1819 98.3745 66.5682C98.3745 63.9546 100.493 61.8358 103.107 61.8358C105.721 61.8358 107.839 63.9546 107.839 66.5682Z" fill="white"/>
<path fill-rule="evenodd" clip-rule="evenodd" d="M54.7602 88.0725C50.6336 88.0725 46.9044 87.1828 43.5727 85.4034C40.2789 83.624 37.6856 81.182 35.7926 78.0776C33.9375 74.9352 33.0099 71.4142 33.0099 67.5147C33.0099 63.6152 33.9375 60.1132 35.7926 57.0087C37.6856 53.8663 40.2789 51.4055 43.5727 49.6261C46.9044 47.8466 50.6336 46.957 54.7602 46.957C58.8869 46.957 62.5972 47.8466 65.891 49.6261C69.1848 51.4055 71.7781 53.8663 73.6711 57.0087C75.5641 60.1132 76.5106 63.6152 76.5106 67.5147C76.5106 71.4142 75.5641 74.9352 73.6711 78.0776C72.2967 80.3316 70.553 82.2365 68.44 83.792C66.9173 85.9355 66.156 88.3908 66.156 91.158C66.156 93.6189 66.686 95.8148 67.7461 97.7456C68.844 99.6765 70.3584 101.191 72.2892 102.289C74.2201 103.349 76.4159 103.879 78.8768 103.879C81.3377 103.879 83.5335 103.349 85.4644 102.289C87.3952 101.191 88.8907 99.6765 89.9507 97.7456C91.0487 95.8148 91.5976 93.6189 91.5976 91.158C91.5976 88.4206 90.8616 85.9884 89.3895 83.8614C87.2338 82.2932 85.4585 80.3653 84.0636 78.0776C82.2084 74.9352 81.2809 71.4142 81.2809 67.5147C81.2809 63.6152 82.2084 60.1132 84.0636 57.0087C85.9566 53.8663 88.5499 51.4055 91.8437 49.6261C95.1754 47.8466 98.9045 46.957 103.031 46.957C107.158 46.957 110.868 47.8466 114.162 49.6261C117.456 51.4055 120.049 53.8663 121.942 57.0087C123.835 60.1132 124.782 63.6152 124.782 67.5147C124.782 71.4142 123.835 74.9352 121.942 78.0776C120.049 81.182 117.456 83.624 114.162 85.4034C110.868 87.1828 107.158 88.0725 103.031 88.0725C101.702 88.0725 100.414 87.9801 99.1668 87.7955C99.3453 89.0176 99.4346 90.2899 99.4346 91.6124C99.4346 92.8315 99.3555 94.0152 99.1973 95.1636L113.847 103.387C114.303 103.643 114.465 104.22 114.209 104.675C113.953 105.131 113.376 105.293 112.92 105.038L98.8405 97.1341C98.5695 98.3327 98.206 99.4898 97.7497 100.605C97.9134 100.602 98.0803 100.641 98.2335 100.727L108.963 106.749C109.419 107.005 109.581 107.582 109.325 108.038C109.069 108.494 108.492 108.656 108.036 108.4L97.3069 102.377C97.2028 102.319 97.114 102.244 97.042 102.157C96.9524 102.335 96.8602 102.511 96.7655 102.686C96.2816 103.591 95.7438 104.443 95.1518 105.242C95.1696 105.251 95.1872 105.26 95.2047 105.27L101.808 108.976C102.263 109.232 102.425 109.809 102.17 110.265C101.914 110.721 101.337 110.883 100.881 110.627L94.2781 106.92C94.1616 106.855 94.0643 106.769 93.9882 106.669C92.6838 108.122 91.1676 109.369 89.4396 110.41C86.3352 112.265 82.8142 113.192 78.8768 113.192C74.9394 113.192 71.3995 112.265 68.2572 110.41C66.5145 109.347 64.9806 108.07 63.6555 106.578C63.5735 106.716 63.455 106.836 63.3044 106.92L56.7016 110.627C56.2458 110.883 55.6688 110.721 55.413 110.265C55.1571 109.809 55.3192 109.232 55.775 108.976L62.3778 105.27C62.4291 105.241 62.482 105.217 62.5357 105.199C61.9516 104.412 61.4168 103.575 60.9313 102.686C60.8215 102.479 60.7151 102.269 60.6121 102.058C60.5309 102.187 60.4175 102.298 60.2756 102.377L49.5461 108.4C49.0902 108.656 48.5133 108.494 48.2574 108.038C48.0015 107.582 48.1636 107.005 48.6195 106.749L59.3491 100.727C59.5462 100.616 59.7659 100.583 59.9725 100.619C59.5122 99.4734 59.1481 98.286 58.88 97.0567L44.6621 105.038C44.2063 105.293 43.6293 105.131 43.3735 104.675C43.1176 104.22 43.2797 103.643 43.7355 103.387L58.5362 95.0789C58.3914 93.9738 58.319 92.8372 58.319 91.6691C58.319 90.3306 58.4105 89.0406 58.5934 87.7993C57.3583 87.9814 56.0806 88.0725 54.7602 88.0725ZM54.7602 80.2355C57.1075 80.2355 59.2277 79.7055 61.1206 78.6454C63.0136 77.5475 64.4902 76.0331 65.5502 74.1023C66.6482 72.1714 67.1971 69.9756 67.1971 67.5147C67.1971 65.0538 66.6482 62.858 65.5502 60.9271C64.4902 58.9963 63.0136 57.5008 61.1206 56.4408C59.2277 55.3428 57.1075 54.7939 54.7602 54.7939C52.4129 54.7939 50.2928 55.3428 48.3998 56.4408C46.5068 57.5008 45.0114 58.9963 43.9135 60.9271C42.8534 62.858 42.3234 65.0538 42.3234 67.5147C42.3234 69.9756 42.8534 72.1714 43.9135 74.1023C45.0114 76.0331 46.5068 77.5475 48.3998 78.6454C50.2928 79.7055 52.4129 80.2355 54.7602 80.2355ZM109.392 78.6454C107.499 79.7055 105.379 80.2355 103.031 80.2355C100.684 80.2355 98.5638 79.7055 96.6708 78.6454C94.7778 77.5475 93.2824 76.0331 92.1845 74.1023C91.1244 72.1714 90.5944 69.9756 90.5944 67.5147C90.5944 65.0538 91.1244 62.858 92.1845 60.9271C93.2824 58.9963 94.7778 57.5008 96.6708 56.4408C98.5638 55.3428 100.684 54.7939 103.031 54.7939C105.379 54.7939 107.499 55.3428 109.392 56.4408C111.285 57.5008 112.761 58.9963 113.821 60.9271C114.919 62.858 115.468 65.0538 115.468 67.5147C115.468 69.9756 114.919 72.1714 113.821 74.1023C112.761 76.0331 111.285 77.5475 109.392 78.6454Z" fill="white"/>
</svg>
