<svg width="250" height="72" viewBox="0 0 250 72" fill="none" xmlns="http://www.w3.org/2000/svg">
<path d="M32.89 16.0177C32.89 18.5305 32.3162 20.8372 31.1687 22.938C30.0211 24.9977 28.2588 26.6659 25.8817 27.9429C23.5046 29.2199 20.5537 29.8583 17.029 29.8583H10.5125V45.4291H0V2.05351H17.029C20.4717 2.05351 23.3816 2.6508 25.7587 3.84538C28.1358 5.03996 29.9186 6.68765 31.1072 8.78846C32.2957 10.8893 32.89 13.299 32.89 16.0177ZM16.2298 21.4551C18.2381 21.4551 19.734 20.9814 20.7176 20.034C21.7013 19.0865 22.1931 17.7478 22.1931 16.0177C22.1931 14.2876 21.7013 12.9489 20.7176 12.0015C19.734 11.054 18.2381 10.5803 16.2298 10.5803H10.5125V21.4551H16.2298Z" fill="white"/>
<path d="M145.91 23.6795C145.91 19.3955 146.832 15.5852 148.676 12.2486C150.521 8.87085 153.082 6.25513 156.361 4.40148C159.681 2.50663 163.431 1.5592 167.611 1.5592C172.734 1.5592 177.12 2.91855 180.767 5.63725C184.415 8.35594 186.853 12.0633 188.083 16.7592H176.525C175.665 14.9467 174.435 13.5668 172.837 12.6194C171.279 11.6719 169.497 11.1982 167.488 11.1982C164.25 11.1982 161.628 12.331 159.619 14.5966C157.611 16.8622 156.607 19.8898 156.607 23.6795C156.607 27.4692 157.611 30.4968 159.619 32.7624C161.628 35.028 164.25 36.1608 167.488 36.1608C169.497 36.1608 171.279 35.6871 172.837 34.7396C174.435 33.7922 175.665 32.4123 176.525 30.5998H188.083C186.853 35.2957 184.415 39.0031 180.767 41.7217C177.12 44.3992 172.734 45.738 167.611 45.738C163.431 45.738 159.681 44.8112 156.361 42.9575C153.082 41.0627 150.521 38.447 148.676 35.1104C146.832 31.7738 145.91 27.9635 145.91 23.6795Z" fill="white"/>
<path d="M231.898 2.05351V45.4291H221.386V27.5722H205.033V45.4291H194.521V2.05351H205.033V19.0454H221.386V2.05351H231.898Z" fill="white"/>
<path d="M250 2.05351V45.4291H239.487V2.05351H250Z" fill="white"/>
<path d="M63.1109 26.7715C65.9382 26.7715 68.2302 24.4771 68.2302 21.6468C68.2302 18.8165 65.9382 16.5221 63.1109 16.5221C60.2836 16.5221 57.9917 18.8165 57.9917 21.6468C57.9917 24.4771 60.2836 26.7715 63.1109 26.7715Z" fill="#FFB628"/>
<path d="M120.446 21.2368C120.446 24.0671 118.154 26.3615 115.327 26.3615C112.5 26.3615 110.208 24.0671 110.208 21.2368C110.208 18.4065 112.5 16.1121 115.327 16.1121C118.154 16.1121 120.446 18.4065 120.446 21.2368Z" fill="#FFB628"/>
<path fill-rule="evenodd" clip-rule="evenodd" d="M63.029 44.5235C58.5651 44.5235 54.5311 43.5601 50.9271 41.6332C47.3641 39.7063 44.5588 37.062 42.5111 33.7002C40.5044 30.2973 39.501 26.4845 39.501 22.2618C39.501 18.039 40.5044 14.2467 42.5111 10.8849C44.5588 7.48209 47.3641 4.81724 50.9271 2.89034C54.5311 0.963437 58.5651 0 63.029 0C67.493 0 71.5065 0.963437 75.0695 2.89034C78.6325 4.81724 81.4378 7.48209 83.4855 10.8849C85.5332 14.2467 86.5571 18.039 86.5571 22.2618C86.5571 26.4845 85.5332 30.2973 83.4855 33.7002C81.9987 36.1411 80.1125 38.2038 77.8269 39.8882C76.1797 42.2094 75.3562 44.8683 75.3562 47.8649C75.3562 50.5297 75.9295 52.9076 77.0762 54.9985C78.2639 57.0894 79.902 58.7293 81.9907 59.9182C84.0793 61.0662 86.4547 61.6401 89.1167 61.6401C91.7787 61.6401 94.154 61.0662 96.2427 59.9182C98.3313 58.7293 99.949 57.0894 101.096 54.9985C102.283 52.9076 102.877 50.5297 102.877 47.8649C102.877 44.9005 102.081 42.2667 100.489 39.9634C98.1567 38.2652 96.2363 36.1775 94.7273 33.7002C92.7206 30.2973 91.7172 26.4845 91.7172 22.2618C91.7172 18.039 92.7206 14.2467 94.7273 10.8849C96.775 7.48209 99.5804 4.81724 103.143 2.89034C106.747 0.963437 110.781 0 115.245 0C119.709 0 123.723 0.963437 127.286 2.89034C130.849 4.81724 133.654 7.48209 135.702 10.8849C137.749 14.2467 138.773 18.039 138.773 22.2618C138.773 26.4845 137.749 30.2973 135.702 33.7002C133.654 37.062 130.849 39.7063 127.286 41.6332C123.723 43.5601 119.709 44.5235 115.245 44.5235C113.807 44.5235 112.414 44.4236 111.065 44.2236C111.258 45.547 111.355 46.9247 111.355 48.3569C111.355 49.677 111.269 50.9589 111.098 52.2025L126.945 61.1073C127.438 61.3844 127.613 62.0091 127.337 62.5027C127.06 62.9963 126.436 63.1719 125.943 62.8948L110.712 54.3363C110.419 55.6342 110.026 56.8872 109.532 58.0954C109.709 58.0914 109.89 58.1334 110.055 58.2265L121.662 64.7485C122.155 65.0256 122.33 65.6503 122.054 66.1439C121.777 66.6376 121.153 66.8131 120.66 66.536L109.053 60.0141C108.94 59.9508 108.844 59.8694 108.767 59.7755C108.67 59.9678 108.57 60.1589 108.467 60.3487C107.944 61.3282 107.362 62.2508 106.722 63.1164C106.731 63.121 106.741 63.1258 106.75 63.1307C106.76 63.1357 106.77 63.1409 106.779 63.1462L113.922 67.1598C114.415 67.4368 114.59 68.0616 114.313 68.5552C114.036 69.0488 113.412 69.2244 112.919 68.9473L105.777 64.9338C105.651 64.863 105.545 64.7694 105.463 64.6611C104.052 66.2346 102.412 67.585 100.543 68.7122C97.1846 70.7211 93.3759 71.7256 89.1167 71.7256C84.8575 71.7256 81.0283 70.7211 77.6291 68.7122C75.744 67.5615 74.0847 66.1783 72.6513 64.5626C72.5626 64.7127 72.4343 64.8422 72.2714 64.9338L65.129 68.9473C64.6359 69.2244 64.0118 69.0488 63.735 68.5552C63.4582 68.0616 63.6336 67.4368 64.1266 67.1598L71.2691 63.1462C71.3247 63.115 71.3819 63.0896 71.44 63.0697C70.8081 62.2176 70.2297 61.3106 69.7045 60.3487C69.5856 60.1236 69.4705 59.897 69.3592 59.6687C69.2713 59.8079 69.1486 59.9278 68.9951 60.0141L57.3886 66.536C56.8955 66.8131 56.2714 66.6376 55.9946 66.1439C55.7178 65.6503 55.8932 65.0256 56.3863 64.7485L67.9928 58.2265C68.206 58.1067 68.4438 58.0715 68.6674 58.1101C68.1694 56.8695 67.7754 55.5836 67.4854 54.2525L52.1054 62.8948C51.6124 63.1719 50.9883 62.9963 50.7115 62.5027C50.4347 62.0091 50.6101 61.3844 51.1031 61.1073L67.1136 52.1106C66.957 50.914 66.8787 49.6832 66.8787 48.4183C66.8787 46.9689 66.9776 45.572 67.1754 44.2277C65.8394 44.4249 64.4573 44.5235 63.029 44.5235ZM63.029 36.037C65.5682 36.037 67.8616 35.4631 69.9093 34.3151C71.957 33.1262 73.5542 31.4863 74.7009 29.3954C75.8885 27.3045 76.4824 24.9266 76.4824 22.2618C76.4824 19.5969 75.8885 17.2191 74.7009 15.1282C73.5542 13.0373 71.957 11.4179 69.9093 10.2699C67.8616 9.08099 65.5682 8.48654 63.029 8.48654C60.4899 8.48654 58.1965 9.08099 56.1488 10.2699C54.1011 11.4179 52.4834 13.0373 51.2957 15.1282C50.149 17.2191 49.5757 19.5969 49.5757 22.2618C49.5757 24.9266 50.149 27.3045 51.2957 29.3954C52.4834 31.4863 54.1011 33.1262 56.1488 34.3151C58.1965 35.4631 60.4899 36.037 63.029 36.037ZM122.126 34.3151C120.078 35.4631 117.784 36.037 115.245 36.037C112.706 36.037 110.413 35.4631 108.365 34.3151C106.317 33.1262 104.7 31.4863 103.512 29.3954C102.365 27.3045 101.792 24.9266 101.792 22.2618C101.792 19.5969 102.365 17.2191 103.512 15.1282C104.7 13.0373 106.317 11.4179 108.365 10.2699C110.413 9.08099 112.706 8.48654 115.245 8.48654C117.784 8.48654 120.078 9.08099 122.126 10.2699C124.173 11.4179 125.77 13.0373 126.917 15.1282C128.105 17.2191 128.699 19.5969 128.699 22.2618C128.699 24.9266 128.105 27.3045 126.917 29.3954C125.77 31.4863 124.173 33.1262 122.126 34.3151Z" fill="#FFB628"/>
</svg>
